<?xml version="1.0" encoding="UTF-8"?>
<svg id="_레이어_2" data-name="레이어 2" xmlns="http://www.w3.org/2000/svg" xmlns:xlink="http://www.w3.org/1999/xlink" viewBox="0 0 338.07 42.41">
  <defs>
    <style>
      .cls-1 {
        fill: #009ddd;
      }
      .cls-2 {
        fill: #5bc4f1;
      }
      .cls-3 {
        fill: #b7e1f9;
      }
      .cls-4 {
        fill: #00b2ea;
      }
      .cls-5 {
        fill: #6dc9f3;
      }
      .cls-6 {
        fill: #84d0f4;
      }
      .cls-7 {
        fill: #fff;
      }
      .cls-8 {
        fill: #00a2e0;
      }
      .cls-9 {
        fill: #1db7ec;
      }
      .cls-10 {
        fill: #009bdc;
      }
      .cls-11 {
        fill: #008ed4;
      }
      .cls-12 {
        fill: #7dcdf4;
      }
      .cls-13 {
        fill: #27baee;
      }
      .cls-14 {
        fill: #0090d5;
      }
      .cls-15 {
        fill: #a5dbf7;
      }
      .cls-16 {
        fill: #0099db;
      }
      .cls-17 {
        fill: #92d4f5;
      }
      .cls-18 {
        fill: #fbfdff;
      }
      .cls-19 {
        fill: #d6eefb;
      }
      .cls-20 {
        fill: #f2fafe;
      }
      .cls-21 {
        fill: #0097d9;
      }
      .cls-22 {
        fill: #0062ac;
      }
      .cls-23 {
        fill: #e9f6fd;
      }
      .cls-24 {
        fill: #abddf8;
      }
      .cls-25 {
        fill: #0080cb;
      }
      .cls-26 {
        fill: #0fb5eb;
      }
      .cls-27 {
        fill: #f7fcfe;
      }
      .cls-28 {
        fill: #e0f2fc;
      }
      .cls-29 {
        fill: #8bd2f5;
      }
      .cls-30 {
        fill: #008cd3;
      }
      .cls-31 {
        fill: #0084cd;
      }
      .cls-32 {
        fill: #c7e8fa;
      }
      .cls-33 {
        fill: #00a6e3;
      }
      .cls-34 {
        clip-path: url(#clippath-1);
      }
      .cls-35 {
        fill: #00a4e1;
      }
      .cls-36 {
        fill: #007eca;
      }
      .cls-37 {
        fill: #007bc7;
      }
      .cls-38 {
        fill: #007dc8;
      }
      .cls-39 {
        fill: #00a9e4;
      }
      .cls-40 {
        fill: #0086cf;
      }
      .cls-41 {
        fill: #00abe5;
      }
      .cls-42 {
        fill: #009fdf;
      }
      .cls-43 {
        fill: #0092d7;
      }
      .cls-44 {
        fill: #d1ecfb;
      }
      .cls-45 {
        fill: #eef8fe;
      }
      .cls-46 {
        fill: #008ad1;
      }
      .cls-47 {
        fill: #45c0f0;
      }
      .cls-48 {
        fill: #0082cc;
      }
      .cls-49 {
        fill: #64c7f2;
      }
      .cls-50 {
        fill: #dbf0fc;
      }
      .cls-51 {
        fill: #2fbcef;
      }
      .cls-52 {
        fill: none;
      }
      .cls-53 {
        fill: #9fd9f7;
      }
      .cls-54 {
        fill: #b1dff8;
      }
      .cls-55 {
        fill: #00ade7;
      }
      .cls-56 {
        fill: #50c2f1;
      }
      .cls-57 {
        fill: #00b0e8;
      }
      .cls-58 {
        fill: #0088d0;
      }
      .cls-59 {
        fill: #0094d8;
      }
      .cls-60 {
        fill: #99d6f6;
      }
      .cls-61 {
        fill: #75cbf3;
      }
      .cls-62 {
        fill: #c1e6fa;
      }
      .cls-63 {
        fill: #37bef0;
      }
      .cls-64 {
        fill: #bce4f9;
      }
      .cls-65 {
        fill: #cceafb;
      }
      .cls-66 {
        fill: #e5f4fd;
      }
    </style>
    <clipPath id="clippath-1">
      <path class="cls-52" d="M21.21,42.41c11.71,0,21.2-9.5,21.2-21.2S32.92,0,21.21,0,0,9.49,0,21.21s9.49,21.21,21.21,21.21Z"/>
    </clipPath>
  </defs>
  <g id="_레이어_1-2" data-name="레이어 1">
    <g>
      <path class="cls-37" d="M21.21,42.41c11.71,0,21.2-9.5,21.2-21.2S32.92,0,21.21,0,0,9.49,0,21.21s9.49,21.21,21.21,21.21Z"/>
      <g class="cls-34">
        <g>
          <path class="cls-37" d="M21.29,31.44c9.32,0,17.31,2.59,20.73,6.29,1.15-2.63,1.78-5.54,1.78-8.58,0-12.17-10.08-22.02-22.51-22.02C8.87,7.12-1.21,16.98-1.21,29.15c0,3.05,.63,5.94,1.78,8.58,3.41-3.69,11.41-6.29,20.72-6.29Z"/>
          <path class="cls-38" d="M21.29,31.46c9.29,0,17.26,2.57,20.67,6.24,1.15-2.61,1.77-5.5,1.77-8.52,0-12.07-10.06-21.88-22.45-21.88C8.9,7.31-1.16,17.12-1.16,29.19c0,3.02,.63,5.9,1.78,8.51,3.4-3.66,11.38-6.24,20.67-6.24Z"/>
          <path class="cls-36" d="M21.29,31.49c9.27,0,17.22,2.55,20.62,6.19,1.14-2.59,1.77-5.45,1.77-8.45,0-11.97-10.03-21.73-22.39-21.73C8.93,7.5-1.1,17.26-1.1,29.23c0,3,.63,5.85,1.77,8.44,3.4-3.63,11.35-6.19,20.62-6.19Z"/>
          <path class="cls-25" d="M21.28,31.51c9.25,0,17.17,2.53,20.57,6.14,1.14-2.57,1.77-5.41,1.77-8.38,0-11.87-10.01-21.58-22.33-21.58C8.96,7.68-1.05,17.4-1.05,29.27c0,2.97,.63,5.8,1.77,8.37,3.39-3.6,11.32-6.14,20.57-6.14Z"/>
          <path class="cls-48" d="M21.28,31.53c9.22,0,17.13,2.51,20.52,6.08,1.14-2.55,1.76-5.36,1.76-8.31,0-11.78-9.98-21.44-22.28-21.44C8.99,7.87-.99,17.53-.99,29.31c0,2.95,.63,5.75,1.76,8.3,3.38-3.58,11.29-6.08,20.51-6.08Z"/>
          <path class="cls-31" d="M21.28,31.56c9.2,0,17.09,2.49,20.46,6.03,1.14-2.53,1.76-5.32,1.76-8.24,0-11.68-9.95-21.29-22.22-21.29C9.02,8.06-.94,17.67-.94,29.36c0,2.92,.62,5.71,1.76,8.23,3.37-3.54,11.26-6.03,20.46-6.03Z"/>
          <path class="cls-40" d="M21.27,31.58c9.18,0,17.04,2.47,20.41,5.99,1.13-2.51,1.75-5.27,1.75-8.17,0-11.58-9.93-21.15-22.16-21.15C9.05,8.25-.88,17.81-.88,29.4c0,2.9,.62,5.66,1.75,8.17,3.36-3.52,11.23-5.99,20.41-5.99Z"/>
          <path class="cls-58" d="M21.27,31.6c9.15,0,17,2.45,20.35,5.93,1.13-2.49,1.75-5.23,1.75-8.1,0-11.48-9.9-21-22.1-21S-.83,17.95-.83,29.44c0,2.88,.62,5.61,1.75,8.1,3.35-3.49,11.2-5.93,20.35-5.93Z"/>
          <path class="cls-46" d="M21.27,31.63c9.13,0,16.95,2.43,20.3,5.88,1.13-2.46,1.74-5.18,1.74-8.03,0-11.39-9.87-20.85-22.04-20.85C9.11,8.62-.77,18.09-.77,29.48c0,2.85,.62,5.56,1.74,8.03,3.34-3.46,11.18-5.88,20.3-5.88Z"/>
          <path class="cls-30" d="M21.27,31.65c9.1,0,16.91,2.41,20.25,5.83,1.12-2.44,1.74-5.14,1.74-7.96,0-11.29-9.85-20.71-21.99-20.71S-.72,18.23-.72,29.52c0,2.83,.62,5.52,1.74,7.96,3.33-3.43,11.15-5.83,20.25-5.83Z"/>
          <path class="cls-11" d="M21.26,31.67c9.08,0,16.87,2.38,20.2,5.78,1.12-2.42,1.73-5.09,1.73-7.89,0-11.19-9.82-20.56-21.93-20.56C9.16,9-.66,18.37-.66,29.56c0,2.8,.62,5.47,1.73,7.89,3.33-3.4,11.12-5.78,20.19-5.78Z"/>
          <path class="cls-14" d="M21.26,31.7c9.05,0,16.82,2.36,20.14,5.73,1.12-2.4,1.73-5.05,1.73-7.83,0-11.09-9.8-20.41-21.87-20.41S-.61,18.51-.61,29.61c0,2.78,.61,5.42,1.73,7.82,3.32-3.37,11.09-5.73,20.14-5.73Z"/>
          <path class="cls-43" d="M21.26,31.72c9.03,0,16.78,2.34,20.09,5.68,1.11-2.38,1.72-5,1.72-7.75,0-11-9.77-20.27-21.81-20.27C9.22,9.38-.55,18.65-.55,29.65c0,2.75,.61,5.38,1.72,7.75,3.31-3.34,11.06-5.68,20.09-5.68Z"/>
          <path class="cls-59" d="M21.26,31.74c9.01,0,16.73,2.32,20.04,5.63,1.11-2.36,1.72-4.96,1.72-7.69,0-10.9-9.74-20.12-21.76-20.12C9.25,9.56-.5,18.79-.5,29.69c0,2.73,.61,5.33,1.72,7.68,3.3-3.31,11.03-5.63,20.03-5.63Z"/>
          <path class="cls-21" d="M21.25,31.77c8.98,0,16.69,2.3,19.98,5.58,1.11-2.34,1.71-4.92,1.71-7.62,0-10.8-9.72-19.98-21.7-19.98C9.28,9.75-.44,18.93-.44,29.73c0,2.7,.61,5.28,1.71,7.62,3.29-3.28,11-5.58,19.98-5.58Z"/>
          <path class="cls-16" d="M21.25,31.79c8.96,0,16.65,2.28,19.93,5.53,1.11-2.32,1.71-4.87,1.71-7.55,0-10.7-9.69-19.83-21.64-19.83C9.31,9.94-.39,19.07-.39,29.77c0,2.68,.61,5.23,1.71,7.55,3.28-3.25,10.97-5.53,19.93-5.53Z"/>
          <path class="cls-10" d="M21.25,31.82c8.94,0,16.6,2.26,19.88,5.48,1.1-2.3,1.71-4.83,1.71-7.48,0-10.61-9.66-19.68-21.58-19.68S-.33,19.21-.33,29.81c0,2.65,.61,5.18,1.71,7.48,3.27-3.22,10.94-5.48,19.87-5.48Z"/>
          <path class="cls-1" d="M21.24,31.84c8.91,0,16.56,2.24,19.82,5.43,1.1-2.28,1.7-4.78,1.7-7.41,0-10.51-9.64-19.54-21.52-19.54C9.37,10.32-.28,19.35-.28,29.86c0,2.63,.6,5.14,1.7,7.41,3.26-3.19,10.91-5.43,19.82-5.43Z"/>
          <path class="cls-42" d="M21.24,31.86c8.89,0,16.51,2.21,19.77,5.38,1.1-2.25,1.7-4.74,1.7-7.34,0-10.41-9.61-19.39-21.47-19.39C9.4,10.5-.22,19.49-.22,29.9c0,2.6,.6,5.09,1.7,7.34,3.26-3.16,10.88-5.38,19.77-5.38Z"/>
          <path class="cls-8" d="M21.24,31.89c8.86,0,16.47,2.19,19.72,5.32,1.09-2.23,1.69-4.69,1.69-7.27,0-10.31-9.58-19.25-21.41-19.25S-.17,19.63-.17,29.94c0,2.58,.6,5.04,1.69,7.27,3.25-3.13,10.86-5.32,19.72-5.32Z"/>
          <path class="cls-35" d="M21.24,31.91c8.84,0,16.43,2.17,19.66,5.27,1.09-2.21,1.69-4.65,1.69-7.2,0-10.22-9.56-19.1-21.35-19.1S-.11,19.77-.11,29.98c0,2.55,.6,4.99,1.69,7.2,3.24-3.1,10.83-5.27,19.66-5.27Z"/>
          <path class="cls-33" d="M21.23,31.93c8.81,0,16.38,2.15,19.61,5.22,1.09-2.19,1.68-4.61,1.68-7.14,0-10.12-9.53-18.95-21.29-18.95C9.48,11.07-.06,19.91-.06,30.02c0,2.53,.6,4.95,1.68,7.13,3.23-3.07,10.8-5.22,19.61-5.22Z"/>
          <path class="cls-39" d="M21.23,31.96c8.79,0,16.34,2.13,19.56,5.17,1.09-2.17,1.68-4.56,1.68-7.07,0-10.02-9.51-18.81-21.23-18.81S0,20.04,0,30.06c0,2.51,.6,4.9,1.68,7.06,3.22-3.04,10.77-5.17,19.56-5.17Z"/>
          <path class="cls-41" d="M21.23,31.98c8.77,0,16.29,2.11,19.5,5.12,1.08-2.15,1.67-4.52,1.67-7,0-9.92-9.48-18.66-21.18-18.66S.05,20.18,.05,30.11c0,2.48,.6,4.85,1.67,7,3.21-3.01,10.74-5.12,19.5-5.12Z"/>
          <path class="cls-55" d="M21.22,32c8.74,0,16.25,2.09,19.45,5.07,1.08-2.13,1.67-4.47,1.67-6.93,0-9.82-9.45-18.51-21.12-18.51S.11,20.32,.11,30.15c0,2.46,.59,4.8,1.67,6.93,3.2-2.98,10.71-5.07,19.45-5.07Z"/>
          <path class="cls-57" d="M21.22,32.03c8.72,0,16.2,2.07,19.4,5.02,1.08-2.11,1.66-4.43,1.66-6.86,0-9.73-9.43-18.37-21.06-18.37S.16,20.46,.16,30.19c0,2.43,.59,4.76,1.66,6.86,3.19-2.96,10.68-5.02,19.4-5.02Z"/>
          <path class="cls-4" d="M21.22,32.05c8.69,0,16.16,2.04,19.34,4.97,1.08-2.08,1.66-4.38,1.66-6.79,0-9.63-9.4-18.22-21-18.22S.22,20.6,.22,30.23c0,2.41,.59,4.71,1.66,6.79,3.19-2.92,10.65-4.97,19.34-4.97Z"/>
          <path class="cls-26" d="M21.22,32.07c8.67,0,16.12,2.02,19.29,4.92,1.07-2.06,1.66-4.34,1.66-6.72,0-9.53-9.37-18.08-20.95-18.08C9.66,12.2,.27,20.74,.27,30.27c0,2.38,.59,4.66,1.66,6.72,3.18-2.9,10.62-4.92,19.29-4.92Z"/>
          <path class="cls-9" d="M21.21,32.1c8.65,0,16.07,2,19.24,4.87,1.07-2.04,1.65-4.29,1.65-6.65,0-9.44-9.35-17.93-20.89-17.93S.33,20.88,.33,30.32c0,2.36,.59,4.61,1.65,6.65,3.17-2.87,10.59-4.87,19.24-4.87Z"/>
          <path class="cls-13" d="M21.21,32.12c8.62,0,16.03,1.98,19.18,4.82,1.07-2.02,1.65-4.25,1.65-6.58,0-9.34-9.32-17.78-20.83-17.78S.38,21.02,.38,30.36c0,2.33,.58,4.57,1.65,6.58,3.16-2.84,10.56-4.82,19.19-4.82Z"/>
          <path class="cls-51" d="M21.21,32.15c8.6,0,15.99,1.96,19.13,4.77,1.06-2,1.64-4.2,1.64-6.51,0-9.24-9.3-17.64-20.77-17.64S.44,21.16,.44,30.4c0,2.31,.58,4.52,1.64,6.51,3.15-2.81,10.53-4.77,19.13-4.77Z"/>
          <path class="cls-63" d="M21.21,32.17c8.57,0,15.94,1.94,19.08,4.72,1.06-1.98,1.64-4.16,1.64-6.45,0-9.14-9.27-17.49-20.71-17.49S.49,21.3,.49,30.44c0,2.28,.58,4.47,1.64,6.45,3.14-2.78,10.51-4.72,19.08-4.72Z"/>
          <path class="cls-47" d="M21.21,32.22c8.56,0,15.92,1.93,19.05,4.69,1.06-1.96,1.64-4.13,1.64-6.4,0-9.08-9.26-17.38-20.69-17.38S.52,21.42,.52,30.51c0,2.27,.58,4.44,1.63,6.4,3.14-2.76,10.49-4.69,19.05-4.69Z"/>
          <path class="cls-56" d="M21.21,32.28c8.55,0,15.9,1.91,19.02,4.66,1.06-1.95,1.63-4.11,1.63-6.36,0-9.02-9.25-17.28-20.66-17.28S.55,21.55,.55,30.57c0,2.25,.58,4.41,1.63,6.36,3.13-2.74,10.48-4.66,19.03-4.66Z"/>
          <path class="cls-2" d="M21.21,32.33c8.54,0,15.87,1.9,19,4.62,1.06-1.94,1.63-4.08,1.63-6.32,0-8.96-9.23-17.17-20.63-17.17S.57,21.67,.57,30.64c0,2.24,.58,4.38,1.63,6.32,3.13-2.72,10.46-4.62,19-4.62Z"/>
          <path class="cls-49" d="M21.21,32.38c8.53,0,15.85,1.89,18.97,4.59,1.05-1.93,1.63-4.05,1.63-6.28,0-8.9-9.22-17.06-20.6-17.06S.6,21.8,.6,30.7c0,2.23,.58,4.36,1.63,6.28,3.13-2.71,10.45-4.59,18.98-4.59Z"/>
          <path class="cls-5" d="M21.21,32.44c8.52,0,15.83,1.88,18.95,4.56,1.05-1.91,1.63-4.02,1.63-6.24,0-8.84-9.21-16.95-20.57-16.95S.63,21.92,.63,30.77c0,2.21,.58,4.33,1.62,6.24,3.12-2.69,10.44-4.56,18.95-4.56Z"/>
          <path class="cls-61" d="M21.21,32.49c8.5,0,15.81,1.86,18.92,4.53,1.05-1.9,1.62-4,1.62-6.19,0-8.78-9.2-16.85-20.55-16.85S.66,22.05,.66,30.83c0,2.2,.58,4.3,1.62,6.2,3.12-2.67,10.42-4.53,18.93-4.53Z"/>
          <path class="cls-12" d="M21.21,32.55c8.49,0,15.79,1.85,18.9,4.5,1.05-1.89,1.62-3.97,1.62-6.15,0-8.73-9.18-16.74-20.52-16.74S.69,22.17,.69,30.9c0,2.18,.58,4.27,1.62,6.15,3.11-2.65,10.41-4.5,18.9-4.5Z"/>
          <path class="cls-6" d="M21.21,32.6c8.48,0,15.77,1.84,18.87,4.47,1.05-1.87,1.62-3.94,1.62-6.11,0-8.67-9.17-16.63-20.49-16.63S.71,22.3,.71,30.96c0,2.17,.58,4.24,1.62,6.11,3.11-2.63,10.39-4.47,18.87-4.47Z"/>
          <path class="cls-29" d="M21.21,32.65c8.47,0,15.74,1.83,18.84,4.44,1.04-1.86,1.62-3.92,1.62-6.07,0-8.61-9.16-16.52-20.46-16.52S.74,22.42,.74,31.03c0,2.15,.58,4.21,1.61,6.07,3.11-2.61,10.38-4.44,18.85-4.44Z"/>
          <path class="cls-17" d="M21.21,32.71c8.46,0,15.72,1.81,18.82,4.41,1.04-1.85,1.62-3.89,1.62-6.03,0-8.55-9.15-16.42-20.43-16.42S.77,22.55,.77,31.09c0,2.14,.57,4.18,1.61,6.03,3.1-2.6,10.37-4.41,18.82-4.41Z"/>
          <path class="cls-60" d="M21.21,32.76c8.45,0,15.7,1.8,18.79,4.38,1.04-1.84,1.61-3.86,1.61-5.99,0-8.49-9.13-16.31-20.41-16.31S.8,22.67,.8,31.16c0,2.12,.57,4.15,1.61,5.99,3.1-2.58,10.35-4.38,18.8-4.38Z"/>
          <path class="cls-53" d="M21.21,32.82c8.43,0,15.68,1.79,18.77,4.35,1.04-1.82,1.61-3.83,1.61-5.94,0-8.43-9.12-16.2-20.38-16.2S.83,22.8,.83,31.22c0,2.11,.57,4.12,1.61,5.94,3.09-2.56,10.34-4.35,18.77-4.35Z"/>
          <path class="cls-15" d="M21.21,32.87c8.42,0,15.66,1.78,18.74,4.32,1.04-1.81,1.61-3.81,1.61-5.9,0-8.37-9.11-16.09-20.35-16.09S.85,22.92,.85,31.29c0,2.1,.57,4.09,1.6,5.9,3.09-2.54,10.33-4.32,18.75-4.32Z"/>
          <path class="cls-24" d="M21.21,32.92c8.41,0,15.63,1.77,18.72,4.29,1.03-1.8,1.61-3.78,1.61-5.86,0-8.31-9.1-15.99-20.32-15.99S.88,23.05,.88,31.35c0,2.08,.57,4.07,1.6,5.86,3.09-2.52,10.31-4.29,18.72-4.29Z"/>
          <path class="cls-54" d="M21.21,32.98c8.4,0,15.61,1.75,18.69,4.26,1.03-1.78,1.6-3.75,1.6-5.82,0-8.25-9.09-15.88-20.29-15.88S.91,23.17,.91,31.42c0,2.07,.57,4.04,1.6,5.82,3.08-2.51,10.3-4.26,18.7-4.26Z"/>
          <path class="cls-3" d="M21.21,33.03c8.39,0,15.59,1.74,18.66,4.23,1.03-1.77,1.6-3.72,1.6-5.77,0-8.19-9.07-15.77-20.26-15.77S.94,23.3,.94,31.49c0,2.05,.57,4.01,1.6,5.77,3.08-2.49,10.28-4.23,18.67-4.23Z"/>
          <path class="cls-64" d="M21.21,33.08c8.38,0,15.57,1.73,18.64,4.2,1.03-1.76,1.6-3.7,1.6-5.73,0-8.13-9.06-15.66-20.24-15.66S.96,23.42,.96,31.55c0,2.04,.57,3.98,1.6,5.73,3.07-2.47,10.27-4.2,18.65-4.2Z"/>
          <path class="cls-62" d="M21.21,33.14c8.36,0,15.55,1.71,18.61,4.17,1.03-1.74,1.6-3.67,1.6-5.69,0-8.07-9.05-15.56-20.21-15.56S.99,23.55,.99,31.62c0,2.02,.57,3.95,1.59,5.69,3.07-2.45,10.26-4.17,18.62-4.17Z"/>
          <path class="cls-32" d="M21.21,33.19c8.35,0,15.52,1.7,18.59,4.14,1.02-1.73,1.6-3.64,1.6-5.65,0-8.01-9.04-15.45-20.18-15.45S1.02,23.67,1.02,31.68c0,2.01,.57,3.92,1.59,5.65,3.07-2.43,10.24-4.14,18.59-4.14Z"/>
          <path class="cls-65" d="M21.21,33.25c8.34,0,15.5,1.69,18.56,4.11,1.02-1.72,1.59-3.62,1.59-5.61,0-7.95-9.02-15.34-20.15-15.34S1.05,23.8,1.05,31.75c0,1.99,.57,3.89,1.59,5.61,3.06-2.42,10.23-4.1,18.57-4.11Z"/>
          <path class="cls-44" d="M21.21,33.3c8.33,0,15.48,1.68,18.53,4.08,1.02-1.71,1.59-3.59,1.59-5.57,0-7.89-9.01-15.23-20.12-15.23S1.08,23.92,1.08,31.81c0,1.98,.57,3.86,1.59,5.57,3.06-2.4,10.21-4.08,18.54-4.08Z"/>
          <path class="cls-19" d="M21.21,33.35c8.32,0,15.46,1.67,18.51,4.05,1.02-1.69,1.59-3.56,1.59-5.52,0-7.83-9-15.13-20.1-15.13S1.1,24.05,1.1,31.88c0,1.96,.57,3.83,1.58,5.53,3.05-2.38,10.2-4.04,18.52-4.05Z"/>
          <path class="cls-50" d="M21.21,33.41c8.31,0,15.44,1.65,18.48,4.01,1.02-1.68,1.59-3.53,1.59-5.48,0-7.77-8.99-15.02-20.07-15.02S1.13,24.17,1.13,31.94c0,1.95,.56,3.8,1.58,5.48,3.05-2.36,10.19-4.01,18.49-4.02Z"/>
          <path class="cls-28" d="M21.21,33.46c8.3,0,15.41,1.64,18.46,3.98,1.02-1.67,1.58-3.51,1.58-5.44,0-7.71-8.98-14.91-20.04-14.91S1.16,24.3,1.16,32.01c0,1.93,.56,3.77,1.58,5.44,3.05-2.34,10.17-3.98,18.47-3.99Z"/>
          <path class="cls-66" d="M21.21,33.52c8.28,0,15.39,1.63,18.43,3.95,1.01-1.65,1.58-3.48,1.58-5.4,0-7.65-8.96-14.8-20.01-14.8S1.19,24.42,1.19,32.07c0,1.92,.56,3.75,1.58,5.4,3.04-2.33,10.16-3.95,18.44-3.96Z"/>
          <path class="cls-23" d="M21.21,33.57c8.27,0,15.37,1.62,18.41,3.92,1.01-1.64,1.58-3.45,1.58-5.35,0-7.6-8.95-14.7-19.98-14.7S1.22,24.55,1.22,32.14c0,1.91,.56,3.72,1.57,5.36,3.04-2.31,10.14-3.92,18.42-3.93Z"/>
          <path class="cls-45" d="M21.21,33.62c8.26,0,15.35,1.6,18.38,3.89,1.01-1.63,1.58-3.43,1.58-5.31,0-7.53-8.94-14.59-19.96-14.59S1.24,24.67,1.24,32.2c0,1.89,.56,3.69,1.57,5.32,3.03-2.29,10.13-3.89,18.39-3.89Z"/>
          <path class="cls-20" d="M21.21,33.68c8.25,0,15.33,1.59,18.35,3.86,1.01-1.61,1.58-3.4,1.58-5.27,0-7.47-8.93-14.48-19.93-14.48S1.27,24.8,1.27,32.27c0,1.88,.56,3.66,1.57,5.27,3.03-2.27,10.12-3.86,18.37-3.86Z"/>
          <path class="cls-27" d="M21.21,33.73c8.24,0,15.31,1.58,18.33,3.83,1.01-1.6,1.57-3.37,1.57-5.23,0-7.42-8.91-14.37-19.9-14.37S1.3,24.92,1.3,32.33c0,1.86,.56,3.63,1.57,5.23,3.03-2.25,10.1-3.83,18.34-3.83Z"/>
          <path class="cls-18" d="M21.21,33.79c8.23,0,15.28,1.57,18.3,3.8,1-1.59,1.57-3.34,1.57-5.19,0-7.36-8.9-14.27-19.87-14.27S1.33,25.05,1.33,32.4c0,1.85,.56,3.6,1.56,5.19,3.02-2.23,10.09-3.8,18.31-3.8Z"/>
          <path class="cls-7" d="M21.21,33.84c8.21,0,15.26,1.56,18.28,3.77,1-1.58,1.57-3.32,1.57-5.15,0-7.3-8.89-14.16-19.84-14.16S1.36,25.17,1.36,32.46c0,1.83,.56,3.57,1.56,5.15,3.02-2.22,10.08-3.77,18.29-3.77Z"/>
        </g>
      </g>
      <path class="cls-37" d="M21.21,26.56c-7.19,0-13.86,1.22-19.37,3.28,3.3,7.41,10.73,12.57,19.37,12.57s16.06-5.16,19.37-12.57c-5.51-2.06-12.19-3.28-19.38-3.28Z"/>
      <g>
        <path class="cls-22" d="M49.48,24.79h34.46v3.04h-14.57v11.99h-5.28v-11.99h-14.61v-3.04Zm4.86-12.61c0-1.28,.32-2.49,.96-3.62,.64-1.13,1.52-2.11,2.64-2.95,1.12-.84,2.43-1.49,3.93-1.97,1.5-.47,3.12-.71,4.84-.71s3.34,.24,4.86,.73c1.52,.49,2.83,1.15,3.93,1.99,1.11,.84,1.98,1.82,2.62,2.95,.64,1.13,.96,2.33,.96,3.58s-.32,2.49-.96,3.6-1.52,2.09-2.62,2.91c-1.11,.82-2.42,1.48-3.93,1.97-1.52,.49-3.14,.73-4.86,.73s-3.33-.24-4.84-.71-2.81-1.13-3.93-1.97c-1.12-.83-2-1.81-2.64-2.93s-.96-2.32-.96-3.6Zm5.28,0c0,.9,.17,1.73,.52,2.49,.35,.76,.83,1.42,1.46,1.99s1.37,1,2.24,1.31c.86,.31,1.82,.46,2.87,.46s1.93-.16,2.79-.48c.86-.32,1.61-.76,2.24-1.31,.63-.55,1.12-1.21,1.46-1.97,.35-.76,.52-1.59,.52-2.49s-.17-1.73-.52-2.5c-.35-.77-.84-1.43-1.46-1.99-.63-.55-1.38-.99-2.24-1.31-.86-.32-1.79-.48-2.79-.48s-1.94,.16-2.81,.48c-.87,.32-1.63,.76-2.25,1.31-.63,.55-1.12,1.21-1.48,1.99-.36,.77-.54,1.61-.54,2.5Z"/>
        <path class="cls-22" d="M113.84,39.4h-5.28v-11.22c-.28,.26-.66,.45-1.14,.58-.48,.13-.98,.22-1.5,.29-.53,.07-1.04,.1-1.54,.12-.5,.01-.91,.02-1.21,.02h-14.22c-.39,0-.77-.04-1.16-.12-.39-.08-.74-.2-1.06-.37s-.58-.4-.79-.69c-.21-.29-.31-.66-.31-1.1v-9.79c0-.41-.04-.78-.12-1.1s-.21-.66-.39-1.02h12.57V7.68h-12.3v-3.04h16.07c.59,0,1,.1,1.21,.31,.22,.21,.33,.52,.33,.93v10.94c0,.44-.1,.75-.31,.95s-.6,.29-1.19,.29h-10.6v6.91c0,.41,.08,.71,.23,.9,.15,.19,.51,.29,1.08,.29h12.1c.41,0,.87-.03,1.37-.1,.5-.06,.96-.19,1.39-.39s.78-.46,1.06-.81c.28-.35,.42-.79,.42-1.33V5.86c0-.28-.01-.57-.04-.87s-.07-.57-.13-.83c-.06-.26-.16-.46-.29-.62h4.01c1.16,0,1.73,.44,1.73,1.31V39.4Z"/>
        <g>
          <path class="cls-22" d="M144.31,39.4h-5.13V17.74h-2.7c-.13,1.57-.44,3.01-.93,4.32-.49,1.31-1.12,2.44-1.91,3.37-.78,.94-1.69,1.67-2.72,2.2-1.03,.53-2.13,.79-3.31,.79-1.31,0-2.51-.3-3.6-.91-1.09-.6-2.04-1.45-2.85-2.54-.81-1.09-1.44-2.39-1.89-3.89-.45-1.5-.67-3.14-.67-4.91s.22-3.45,.67-4.95c.45-1.5,1.08-2.8,1.89-3.89,.81-1.09,1.76-1.95,2.85-2.56,1.09-.62,2.29-.92,3.6-.92,1.18,0,2.29,.26,3.31,.79,1.03,.53,1.93,1.26,2.72,2.2,.78,.94,1.42,2.07,1.91,3.39,.49,1.32,.8,2.77,.93,4.34h2.7V6.48c0-.44-.01-.93-.04-1.48-.02-.55-.15-1.03-.38-1.45h4.09c.59,0,.98,.1,1.18,.29s.29,.51,.29,.94V39.4Zm-20.39-23.26c0,1.41,.1,2.68,.29,3.81s.46,2.1,.79,2.9c.33,.81,.73,1.43,1.18,1.87,.45,.44,.93,.65,1.45,.65,.49,0,.96-.22,1.41-.65,.45-.44,.84-1.06,1.18-1.87,.33-.81,.6-1.77,.79-2.9s.29-2.4,.29-3.81-.1-2.69-.29-3.83c-.19-1.14-.46-2.11-.79-2.92-.33-.81-.73-1.43-1.18-1.87-.45-.44-.92-.65-1.41-.65-.51,0-1,.22-1.45,.65-.45,.44-.84,1.06-1.18,1.87-.33,.81-.6,1.78-.79,2.92-.19,1.14-.29,2.42-.29,3.83Zm22.47-9.66c0-.44-.01-.93-.04-1.48-.03-.55-.17-1.03-.42-1.45h4.09c.59,0,.98,.1,1.16,.29,.18,.19,.27,.51,.27,.94V39.4h-5.05V6.48Z"/>
          <path class="cls-22" d="M190.06,32.46v3.05h-34.46v-3.05h34.46Zm-3.51-27.21v3.05h-4.28v12.49h4.28v3.04h-27.56v-3.04h4.39V8.29h-4.39v-3.05h27.56Zm-17.89,15.53h8.33V8.29h-8.33v12.49Z"/>
          <path class="cls-22" d="M192.56,16.43c0-1.85,.27-3.54,.81-5.07,.54-1.53,1.29-2.85,2.25-3.97s2.11-1.99,3.45-2.6,2.81-.92,4.43-.92,3.1,.31,4.43,.92,2.49,1.48,3.45,2.6c.96,1.12,1.72,2.44,2.25,3.97,.54,1.53,.81,3.22,.81,5.07s-.27,3.51-.81,5.05c-.54,1.54-1.29,2.87-2.25,3.97-.96,1.11-2.11,1.97-3.45,2.58s-2.81,.92-4.43,.92-3.1-.31-4.43-.92-2.49-1.48-3.45-2.58-1.72-2.43-2.25-3.97c-.54-1.54-.81-3.22-.81-5.05Zm5.55-.04c0,1.39,.12,2.65,.37,3.8,.24,1.14,.6,2.13,1.06,2.97,.46,.84,1.03,1.48,1.72,1.93,.68,.45,1.44,.67,2.29,.67s1.61-.22,2.29-.67c.68-.45,1.25-1.09,1.72-1.93,.46-.83,.82-1.82,1.06-2.97,.24-1.14,.37-2.41,.37-3.8s-.12-2.65-.37-3.8c-.24-1.14-.6-2.13-1.06-2.95-.46-.82-1.03-1.46-1.72-1.91s-1.44-.67-2.29-.67-1.61,.22-2.29,.67c-.68,.45-1.25,1.09-1.72,1.91-.46,.82-.82,1.81-1.06,2.95-.24,1.14-.37,2.41-.37,3.8Zm30.3,2.43h-5.36v20.58h-5.28V6.52c0-.51-.02-1.02-.06-1.52-.04-.5-.19-.98-.44-1.45h4.05c1.16,0,1.73,.41,1.73,1.23V15.77h5.36v3.04Z"/>
          <path class="cls-22" d="M229.57,16.43c0-1.85,.27-3.54,.81-5.07,.54-1.53,1.29-2.85,2.25-3.97s2.11-1.99,3.45-2.6,2.81-.92,4.43-.92,3.1,.31,4.43,.92,2.49,1.48,3.45,2.6c.96,1.12,1.72,2.44,2.25,3.97,.54,1.53,.81,3.22,.81,5.07s-.27,3.51-.81,5.05c-.54,1.54-1.29,2.87-2.25,3.97-.96,1.11-2.11,1.97-3.45,2.58s-2.81,.92-4.43,.92-3.1-.31-4.43-.92-2.49-1.48-3.45-2.58-1.72-2.43-2.25-3.97c-.54-1.54-.81-3.22-.81-5.05Zm5.55-.04c0,1.39,.12,2.65,.37,3.8,.24,1.14,.6,2.13,1.06,2.97,.46,.84,1.03,1.48,1.72,1.93,.68,.45,1.44,.67,2.29,.67s1.61-.22,2.29-.67c.68-.45,1.25-1.09,1.72-1.93,.46-.83,.82-1.82,1.06-2.97,.24-1.14,.37-2.41,.37-3.8s-.12-2.65-.37-3.8c-.24-1.14-.6-2.13-1.06-2.95-.46-.82-1.03-1.46-1.72-1.91s-1.44-.67-2.29-.67-1.61,.22-2.29,.67c-.68,.45-1.25,1.09-1.72,1.91-.46,.82-.82,1.81-1.06,2.95-.24,1.14-.37,2.41-.37,3.8Zm26.17,23.01h-5.32V5.86c0-.28,0-.56-.02-.85-.01-.28-.05-.56-.12-.83s-.16-.48-.29-.64h4.01c1.16,.05,1.74,.48,1.74,1.27V39.4Z"/>
          <path class="cls-22" d="M292.32,39.4h-5.13V17.74h-2.7c-.13,1.57-.44,3.01-.92,4.32-.49,1.31-1.12,2.44-1.91,3.37-.78,.94-1.69,1.67-2.72,2.2-1.03,.53-2.13,.79-3.32,.79-1.31,0-2.51-.3-3.6-.91-1.09-.6-2.04-1.45-2.85-2.54-.81-1.09-1.44-2.39-1.89-3.89-.45-1.5-.67-3.14-.67-4.91s.22-3.45,.67-4.95c.45-1.5,1.08-2.8,1.89-3.89s1.76-1.95,2.85-2.56,2.29-.92,3.6-.92c1.18,0,2.29,.26,3.32,.79,1.03,.53,1.93,1.26,2.72,2.2,.78,.94,1.42,2.07,1.91,3.39,.49,1.32,.8,2.77,.92,4.34h2.7V6.48c0-.44-.01-.93-.04-1.48-.03-.55-.15-1.03-.39-1.45h4.09c.59,0,.98,.1,1.18,.29s.29,.51,.29,.94V39.4Zm-20.39-23.26c0,1.41,.1,2.68,.29,3.81s.46,2.1,.79,2.9c.33,.81,.73,1.43,1.18,1.87,.45,.44,.93,.65,1.44,.65s.96-.22,1.41-.65c.45-.44,.84-1.06,1.18-1.87,.33-.81,.6-1.77,.79-2.9,.19-1.13,.29-2.4,.29-3.81s-.1-2.69-.29-3.83c-.19-1.14-.46-2.11-.79-2.92-.33-.81-.73-1.43-1.18-1.87-.45-.44-.92-.65-1.41-.65-.51,0-1,.22-1.44,.65-.45,.44-.84,1.06-1.18,1.87-.33,.81-.6,1.78-.79,2.92-.19,1.14-.29,2.42-.29,3.83Zm22.47-9.66c0-.44-.01-.93-.04-1.48-.03-.55-.17-1.03-.42-1.45h4.09c.59,0,.98,.1,1.16,.29,.18,.19,.27,.51,.27,.94V39.4h-5.05V6.48Z"/>
          <path class="cls-22" d="M338.07,32.46v3.05h-34.46v-3.05h34.46Zm-32.49-11.33c7.74-4.06,11.96-9.2,12.68-15.42,0-.54-.15-.99-.46-1.35l-.42-.35h5.67c.18,0,.33,.04,.46,.11,.44,.21,.66,.64,.66,1.31,0,1.08-.14,2.13-.42,3.14-.28,1.01-.68,1.99-1.2,2.91,1.77,1.39,3.8,2.71,6.07,3.97,2.27,1.26,4.76,2.48,7.46,3.66l-2.93,4.12c-5.32-2.8-9.4-5.9-12.26-9.29-.87,1.11-1.87,2.14-2.99,3.1-1.12,.96-2.29,1.84-3.51,2.64-1.22,.8-2.45,1.52-3.7,2.16s-2.44,1.19-3.56,1.66l-1.54-2.39Z"/>
        </g>
      </g>
    </g>
  </g>
</svg>